<?xml version="1.0" standalone="no"?><svg xmlns="http://www.w3.org/2000/svg" viewBox="0 0 1440 320"><path fill="#f3f4f5" fill-opacity="1" d="M0,256L34.3,224C68.6,192,137,128,206,112C274.3,96,343,128,411,160C480,192,549,224,617,213.3C685.7,203,754,149,823,133.3C891.4,117,960,139,1029,133.3C1097.1,128,1166,96,1234,96C1302.9,96,1371,128,1406,144L1440,160L1440,320L1405.7,320C1371.4,320,1303,320,1234,320C1165.7,320,1097,320,1029,320C960,320,891,320,823,320C754.3,320,686,320,617,320C548.6,320,480,320,411,320C342.9,320,274,320,206,320C137.1,320,69,320,34,320L0,320Z"></path></svg>